<?xml version="1.0" encoding="utf-8"?>
<!-- Generator: Adobe Illustrator 24.1.2, SVG Export Plug-In . SVG Version: 6.00 Build 0)  -->
<svg version="1.1" id="Capa_1" xmlns="http://www.w3.org/2000/svg" xmlns:xlink="http://www.w3.org/1999/xlink" x="0px" y="0px"
	 viewBox="0 0 385 385" style="enable-background:new 0 0 385 385;" xml:space="preserve">
<style type="text/css">
	.st0{fill:#021278;}
</style>
<path class="st0" d="M345.2,159.2H49.3c-4.7,0-8.5-3.8-8.5-8.5l0,0c0-4.7,3.8-8.5,8.5-8.5h295.9c4.7,0,8.5,3.8,8.5,8.5l0,0
	C353.7,155.4,349.9,159.2,345.2,159.2z"/>
<path class="st0" d="M345.2,259.7H49.3c-4.7,0-8.5-3.8-8.5-8.5l0,0c0-4.7,3.8-8.5,8.5-8.5h295.9c4.7,0,8.5,3.8,8.5,8.5l0,0
	C353.7,255.9,349.9,259.7,345.2,259.7z"/>
</svg>
