<svg xmlns="http://www.w3.org/2000/svg" viewBox="0 0 215.21 59.53"><g id="Calque_2" data-name="Calque 2"><g id="Calque_1-2" data-name="Calque 1"><path d="M36.74,7.77C34.72,2.69,30.32,0,24,0,18.81,0,6.7,2,6.7,20.29v1.28H1a1,1,0,0,0-1,1v.23a1,1,0,0,0,1,1h5.7l.07,34.7a1,1,0,0,0,1,1h9.84a1,1,0,0,0,1-1V23.82H29.37a1,1,0,0,0,1-1v-.23a1,1,0,0,0-1-1H18.64V12.86C18.64,7,21.92,3.27,27,3.27a7.7,7.7,0,0,1,7.66,5.32l.27.78L37,8.44Z"/><path d="M60.52,21.53a1,1,0,0,0-1,1V40.17c0,6.08-1.57,11.11-4.18,13.47a5.61,5.61,0,0,1-3.81,1.46c-3.25,0-4.91-2.23-4.91-6.63V22.54a1,1,0,0,0-1-1H35.9a1,1,0,0,0-1,1V45.9c0,8.41,4.9,13.63,12.78,13.63,6.9,0,11.57-4.18,13.29-11.81l8.52,11.67h1.84V22.54a1,1,0,0,0-1-1Z"/><path d="M103.22,44.58v.73c-.15,7.81-3.95,9.9-6.18,9.9s-3.68-.91-3.68-5.32V23.75h10.33a1,1,0,0,0,1-1v-.18a1,1,0,0,0-1-1H93.35V13.29a1,1,0,0,0-1-1H92a1,1,0,0,0-.71.29l-9.26,9H77.19a1,1,0,0,0-1,1v.18a1,1,0,0,0,1,1H81.6V46.89c0,7.79,4.49,12.44,12,12.44,5.44,0,11.79-3.67,11.79-14v-.74Z"/><path d="M136.05,21.57a1,1,0,0,0-1,1V40.19c0,6.07-1.57,11.1-4.18,13.46a5.61,5.61,0,0,1-3.8,1.46c-3.25,0-4.9-2.23-4.9-6.62V22.58a1,1,0,0,0-1-1h-9.69a1,1,0,0,0-1,1V45.91c0,8.4,4.89,13.62,12.76,13.62,6.89,0,11.56-4.17,13.28-11.79L145,59.39h1.84V22.58a1,1,0,0,0-1-1Z"/><path d="M179.13,21.52c-6.12,0-10.55,2.08-13,7.35V22.58a1,1,0,0,0-1-1h-9.92a1,1,0,0,0-1,1V58.52a1,1,0,0,0,1,1h9.92a1,1,0,0,0,1-1V41.21c0-12,4.38-17.44,13-17.44h.76V21.52Z"/><path d="M212.9,45.9l-.06.66c-.66,6.72-5,9.75-10.11,9.75-7.58,0-11-4.61-11.21-14.91h23.66l0-.71c.17-6.12-1.47-11.12-4.73-14.47-3-3.07-7.19-4.69-12.17-4.69-11.32,0-18.93,7.6-18.93,18.93s8.2,19.07,20.41,19.07c9.21,0,14.4-4.19,15.15-12.83l.07-.8Zm-21.38-6.67c.17-10.31,2.43-15.54,6.71-15.54,3.72,0,5.65,5.23,5.73,15.54Z"/></g></g></svg>